<svg width="14" height="14" viewBox="0 0 14 14" fill="none" xmlns="http://www.w3.org/2000/svg">
<g clip-path="url(#clip0_298_791)">
<path d="M13.3216 3.44696C13.3998 3.32738 13.4313 3.1833 13.4103 3.04271C13.3951 2.93888 13.2417 2.01255 12.596 1.35921C11.9385 0.715214 11.0285 0.598548 10.9276 0.587464C10.794 0.572881 10.6593 0.604381 10.5473 0.677298C10.4773 0.722798 8.79612 1.82355 5.41628 5.19171C1.81245 8.80721 0.947367 10.1063 0.912367 10.16C0.861033 10.2387 0.82895 10.3285 0.819617 10.4219L0.586283 12.7756C0.569367 12.9489 0.630033 13.1204 0.752533 13.244C0.8622 13.3549 1.01212 13.4167 1.1667 13.4167C1.1842 13.4167 3.55078 13.2015 3.55078 13.2015C3.6482 13.1921 3.74095 13.1595 3.82203 13.1052C3.87628 13.069 5.18353 12.1812 8.78445 8.56805C12.1625 5.20105 13.2755 3.51638 13.321 3.44638L13.3216 3.44696ZM10.9959 1.78621C11.2047 1.83871 11.5366 1.95363 11.7734 2.1858C12.0027 2.41738 12.1398 2.76446 12.208 3.00305C12.0412 3.23171 11.7029 3.67271 11.1709 4.30038C11.0326 4.00871 10.8378 3.69721 10.5619 3.42655C10.2871 3.15705 9.97095 2.96746 9.6752 2.83271C10.3256 2.2838 10.7672 1.9513 10.9959 1.78621ZM3.28537 12.0546L1.81712 12.1882L1.96528 10.6908C2.23712 10.3221 3.29645 8.97171 6.2417 6.01655C7.18378 5.07738 7.98878 4.32138 8.66195 3.71646C8.91395 3.7748 9.40337 3.92413 9.74462 4.25955C10.0794 4.58796 10.2317 5.05346 10.293 5.30196C9.68045 5.9798 8.9157 6.79063 7.9602 7.74321C5.04295 10.6704 3.66395 11.7694 3.28537 12.0546Z" fill="white"/>
<path d="M2.57827 6.02762C2.69319 6.15187 2.84952 6.21429 3.00585 6.21429C3.14819 6.21429 3.28994 6.16296 3.40252 6.05854C3.63877 5.83979 3.65277 5.47054 3.43402 5.23429C2.81802 4.56929 2.15594 3.87512 1.81644 3.52104C1.91094 3.23579 2.10285 2.78371 2.44352 2.44304C2.79119 2.09596 3.25144 1.90404 3.5361 1.81129C3.79044 2.03821 4.24077 2.44304 4.82644 2.98612L4.31894 3.49362C4.09085 3.72171 4.09085 4.09037 4.31894 4.31846C4.54702 4.54654 4.91569 4.54654 5.14377 4.31846L6.07885 3.38338C6.19027 3.27196 6.2521 3.11913 6.24977 2.96104C6.24744 2.80296 6.18035 2.65304 6.06544 2.54512C4.87077 1.42629 4.07977 0.733875 4.0716 0.726875C3.93685 0.609042 3.75485 0.558875 3.57869 0.593292C3.53144 0.602042 2.41552 0.821958 1.61927 1.61821C0.824188 2.41271 0.603104 3.52979 0.594354 3.57704C0.558771 3.76312 0.615938 3.95504 0.747771 4.09154C0.747771 4.09154 1.70969 5.08846 2.57944 6.02704L2.57827 6.02762Z" fill="white"/>
<path d="M11.4546 7.93567C11.3461 7.82017 11.1961 7.75367 11.0381 7.75134C10.88 7.742 10.7277 7.81025 10.6157 7.92225L9.68123 8.85675C9.45315 9.08484 9.45315 9.45409 9.68123 9.68159C9.90931 9.90967 10.278 9.90967 10.5061 9.68159L11.013 9.17467C11.5543 9.75917 11.9603 10.2101 12.1878 10.4644C12.0951 10.7491 11.9031 11.2105 11.5566 11.557C11.2148 11.8988 10.7633 12.0902 10.4775 12.1841C10.1666 11.8872 9.56631 11.3167 8.76715 10.5683C8.53148 10.3483 8.16223 10.3606 7.9429 10.5951C7.7224 10.8302 7.73465 11.1994 7.96973 11.4199C9.1609 12.5358 9.90698 13.2528 9.90815 13.2545C10.0178 13.3601 10.1636 13.4173 10.3124 13.4173C10.3486 13.4173 10.3853 13.4138 10.4215 13.4068C10.4687 13.398 11.5841 13.1781 12.3809 12.3818C13.1754 11.5873 13.3965 10.4703 13.4058 10.423C13.4396 10.2463 13.3901 10.0643 13.2716 9.92892C13.2646 9.92075 12.5693 9.12684 11.4546 7.93567Z" fill="white"/>
</g>
<defs>
<clipPath id="clip0_298_791">
<rect width="14" height="14" fill="white"/>
</clipPath>
</defs>
</svg>
