<svg width="25" height="25" viewBox="0 0 25 25" fill="none" xmlns="http://www.w3.org/2000/svg">
<path d="M22.5913 13.3869C22.5893 14.8569 22.5783 16.1049 22.4953 17.1299C22.3983 18.3199 22.1993 19.3139 21.7553 20.1389C21.5613 20.5005 21.3154 20.8317 21.0253 21.1219C20.1923 21.9549 19.1323 22.3319 17.7883 22.5119C16.4753 22.6889 14.7913 22.6889 12.6443 22.6889H12.5383C10.3903 22.6889 8.70831 22.6889 7.39431 22.5119C6.05131 22.3319 4.99031 21.9549 4.15831 21.1219C3.42031 20.3839 3.03831 19.4659 2.83631 18.3269C2.63631 17.2069 2.60031 15.8149 2.59331 14.0859C2.59131 13.6459 2.59065 13.1803 2.59131 12.6889V12.6349C2.59131 10.4869 2.59131 8.80493 2.76831 7.49093C2.94831 6.14793 3.32531 5.08693 4.15831 4.25493C4.99131 3.42293 6.05131 3.04493 7.39431 2.86493C8.56231 2.70793 10.0643 2.68993 11.8933 2.68793C12.0784 2.68793 12.256 2.76147 12.3869 2.89237C12.5178 3.02327 12.5913 3.20081 12.5913 3.38593C12.5913 3.57105 12.5178 3.74859 12.3869 3.87949C12.256 4.01039 12.0784 4.08393 11.8933 4.08393C10.0383 4.08593 8.65931 4.10193 7.58031 4.24693C6.39131 4.40693 5.67431 4.71093 5.14431 5.24093C4.61431 5.77093 4.31131 6.48893 4.15131 7.67893C3.98831 8.88893 3.98631 10.4769 3.98631 12.6889V13.4729L4.91831 12.6589C5.32684 12.3015 5.85594 12.1127 6.39846 12.1307C6.94098 12.1487 7.45639 12.3722 7.84031 12.7559L11.8303 16.7459C12.1399 17.0557 12.5488 17.2463 12.9851 17.2841C13.4214 17.322 13.857 17.2047 14.2153 16.9529L14.4933 16.7579C15.0101 16.3947 15.6348 16.2176 16.2654 16.2555C16.8959 16.2935 17.4949 16.5443 17.9643 16.9669L20.5973 19.3369C20.8623 18.7799 21.0203 18.0489 21.1043 17.0169C21.1833 16.0449 21.1943 14.8649 21.1953 13.3869C21.1953 13.2018 21.2689 13.0243 21.3998 12.8934C21.5307 12.7625 21.7082 12.6889 21.8933 12.6889C22.0784 12.6889 22.256 12.7625 22.3869 12.8934C22.5178 13.0243 22.5913 13.2018 22.5913 13.3869Z" fill="#1E3A8A"/>
<path fill-rule="evenodd" clip-rule="evenodd" d="M18.0913 11.6889C15.9703 11.6889 14.9093 11.6889 14.2503 11.0299C13.5913 10.3709 13.5913 9.3099 13.5913 7.1889C13.5913 5.0679 13.5913 4.0069 14.2503 3.3479C14.9093 2.6889 15.9703 2.6889 18.0913 2.6889C20.2123 2.6889 21.2733 2.6889 21.9323 3.3479C22.5913 4.0069 22.5913 5.0679 22.5913 7.1889C22.5913 9.3099 22.5913 10.3709 21.9323 11.0299C21.2733 11.6889 20.2123 11.6889 18.0913 11.6889ZM18.8413 5.1889C18.8413 4.98999 18.7623 4.79923 18.6216 4.65857C18.481 4.51792 18.2902 4.4389 18.0913 4.4389C17.8924 4.4389 17.7016 4.51792 17.561 4.65857C17.4203 4.79923 17.3413 4.98999 17.3413 5.1889V6.4389H16.0913C15.8924 6.4389 15.7016 6.51792 15.561 6.65857C15.4203 6.79923 15.3413 6.98999 15.3413 7.1889C15.3413 7.38782 15.4203 7.57858 15.561 7.71923C15.7016 7.85989 15.8924 7.9389 16.0913 7.9389H17.3413V9.1889C17.3413 9.38782 17.4203 9.57858 17.561 9.71923C17.7016 9.85989 17.8924 9.9389 18.0913 9.9389C18.2902 9.9389 18.481 9.85989 18.6216 9.71923C18.7623 9.57858 18.8413 9.38782 18.8413 9.1889V7.9389H20.0913C20.2902 7.9389 20.481 7.85989 20.6216 7.71923C20.7623 7.57858 20.8413 7.38782 20.8413 7.1889C20.8413 6.98999 20.7623 6.79923 20.6216 6.65857C20.481 6.51792 20.2902 6.4389 20.0913 6.4389H18.8413V5.1889Z" fill="#1E3A8A"/>
</svg>
