<svg width="26" height="26" viewBox="0 0 26 26" fill="none" xmlns="http://www.w3.org/2000/svg">
<path d="M11.1235 22.75C11.3137 23.0793 11.5872 23.3528 11.9166 23.543C12.2459 23.7331 12.6196 23.8332 12.9999 23.8332C13.3802 23.8332 13.7538 23.7331 14.0832 23.543C14.4125 23.3528 14.686 23.0793 14.8762 22.75" stroke="#494949" stroke-width="2" stroke-linecap="round" stroke-linejoin="round"/>
<path d="M3.53402 16.6032C3.3925 16.7583 3.2991 16.9512 3.2652 17.1584C3.23129 17.3656 3.25833 17.5782 3.34303 17.7704C3.42774 17.9625 3.56645 18.1259 3.7423 18.2406C3.91814 18.3553 4.12355 18.4165 4.33352 18.4167H21.6669C21.8768 18.4167 22.0822 18.3558 22.2582 18.2413C22.4342 18.1268 22.5731 17.9636 22.658 17.7716C22.7429 17.5796 22.7702 17.367 22.7366 17.1598C22.7029 16.9525 22.6098 16.7595 22.4685 16.6043C21.0277 15.119 19.5002 13.5406 19.5002 8.66667C19.5002 6.94276 18.8154 5.28946 17.5964 4.07047C16.3774 2.85149 14.7241 2.16667 13.0002 2.16667C11.2763 2.16667 9.62298 2.85149 8.40399 4.07047C7.185 5.28946 6.50019 6.94276 6.50019 8.66667C6.50019 13.5406 4.9716 15.119 3.53402 16.6032Z" stroke="#494949" stroke-width="2" stroke-linecap="round" stroke-linejoin="round"/>
</svg>
