<svg width="24" height="24" viewBox="0 0 24 24" fill="none" xmlns="http://www.w3.org/2000/svg">
<path d="M7 3.33997V4.99997C7 5.79562 7.31607 6.55868 7.87868 7.12129C8.44129 7.6839 9.20435 7.99997 10 7.99997" stroke="black" stroke-width="2" stroke-linecap="round" stroke-linejoin="round"/>
<path d="M10.9998 21.95V18C10.9998 17.4696 10.7891 16.9609 10.414 16.5858C10.0389 16.2107 9.53024 16 8.9998 16C8.46937 16 7.96066 15.7893 7.58559 15.4142C7.21052 15.0391 6.9998 14.5304 6.9998 14V13C6.9998 12.4696 6.78909 11.9609 6.41402 11.5858C6.03895 11.2107 5.53024 11 4.9998 11H2.0498" stroke="black" stroke-width="2" stroke-linecap="round" stroke-linejoin="round"/>
<path d="M21.54 15H17C16.4696 15 15.9609 15.2107 15.5858 15.5858C15.2107 15.9609 15 16.4696 15 17V21.54" stroke="black" stroke-width="2" stroke-linecap="round" stroke-linejoin="round"/>
<path d="M11.9999 2C10.1517 2.00011 8.33964 2.51243 6.76497 3.48007C5.1903 4.4477 3.9146 5.83281 3.0795 7.4816C2.2444 9.1304 1.88258 10.9784 2.0342 12.8204C2.18582 14.6623 2.84495 16.4263 3.93841 17.9163C5.03188 19.4064 6.5169 20.5642 8.2286 21.2614C9.9403 21.9585 11.8117 22.1676 13.6351 21.8655C15.4584 21.5634 17.1624 20.7619 18.5578 19.55C19.9532 18.338 20.9854 16.7631 21.5399 15" stroke="black" stroke-width="2" stroke-linecap="round" stroke-linejoin="round"/>
<path d="M20 6V4C20 3.46957 19.7893 2.96086 19.4142 2.58579C19.0391 2.21071 18.5304 2 18 2C17.4696 2 16.9609 2.21071 16.5858 2.58579C16.2107 2.96086 16 3.46957 16 4V6" stroke="black" stroke-width="2" stroke-linecap="round" stroke-linejoin="round"/>
<path d="M21 6H15C14.4477 6 14 6.44772 14 7V10C14 10.5523 14.4477 11 15 11H21C21.5523 11 22 10.5523 22 10V7C22 6.44772 21.5523 6 21 6Z" stroke="black" stroke-width="2" stroke-linecap="round" stroke-linejoin="round"/>
</svg>
