<svg width="31" height="31" viewBox="0 0 31 31" fill="none" xmlns="http://www.w3.org/2000/svg">
<path d="M18.0834 23.25V7.75C18.0834 7.06485 17.8112 6.40777 17.3267 5.9233C16.8423 5.43884 16.1852 5.16666 15.5 5.16666H5.16671C4.48156 5.16666 3.82448 5.43884 3.34001 5.9233C2.85555 6.40777 2.58337 7.06485 2.58337 7.75V21.9583C2.58337 22.3009 2.71946 22.6294 2.96169 22.8717C3.20393 23.1139 3.53247 23.25 3.87504 23.25H6.45837" stroke="black" stroke-width="2" stroke-linecap="round" stroke-linejoin="round"/>
<path d="M19.375 23.25H11.625" stroke="black" stroke-width="2" stroke-linecap="round" stroke-linejoin="round"/>
<path d="M24.5417 23.25H27.125C27.4676 23.25 27.7962 23.1139 28.0384 22.8717C28.2806 22.6294 28.4167 22.3009 28.4167 21.9583V17.2438C28.4162 16.9506 28.316 16.6664 28.1325 16.4378L23.6375 10.819C23.5167 10.6677 23.3635 10.5455 23.1891 10.4615C23.0147 10.3774 22.8236 10.3336 22.63 10.3333H18.0834" stroke="black" stroke-width="2" stroke-linecap="round" stroke-linejoin="round"/>
<path d="M21.9583 25.8333C23.3851 25.8333 24.5417 24.6767 24.5417 23.25C24.5417 21.8233 23.3851 20.6667 21.9583 20.6667C20.5316 20.6667 19.375 21.8233 19.375 23.25C19.375 24.6767 20.5316 25.8333 21.9583 25.8333Z" stroke="black" stroke-width="2" stroke-linecap="round" stroke-linejoin="round"/>
<path d="M9.04171 25.8333C10.4684 25.8333 11.625 24.6767 11.625 23.25C11.625 21.8233 10.4684 20.6667 9.04171 20.6667C7.61497 20.6667 6.45837 21.8233 6.45837 23.25C6.45837 24.6767 7.61497 25.8333 9.04171 25.8333Z" stroke="black" stroke-width="2" stroke-linecap="round" stroke-linejoin="round"/>
</svg>
